<?xml version="1.0" encoding="UTF-8" standalone="no"?><svg xmlns="http://www.w3.org/2000/svg" xmlns:xlink="http://www.w3.org/1999/xlink" contentScriptType="application/ecmascript" contentStyleType="text/css" height="1058px" preserveAspectRatio="none" style="width:851px;height:1058px;" version="1.1" viewBox="0 0 851 1058" width="851px" zoomAndPan="magnify"><defs><filter height="300%" id="f1h8rfnunm93oz" width="300%" x="-1" y="-1"><feGaussianBlur result="blurOut" stdDeviation="2.0"/><feColorMatrix in="blurOut" result="blurOut2" type="matrix" values="0 0 0 0 0 0 0 0 0 0 0 0 0 0 0 0 0 0 .4 0"/><feOffset dx="4.0" dy="4.0" in="blurOut2" result="blurOut3"/><feBlend in="SourceGraphic" in2="blurOut3" mode="normal"/></filter></defs><g><text fill="#000000" font-family="sans-serif" font-size="18" lengthAdjust="spacing" textLength="342" x="252.5" y="30.6855">Data Agreement Definition and Preparation</text><rect fill="#FFFFFF" filter="url(#f1h8rfnunm93oz)" height="178.5938" style="stroke:#000000;stroke-width:2.0;" width="609" x="10" y="186.6016"/><rect fill="#FFFFFF" height="59.1875" style="stroke:none;stroke-width:1.0;" width="609" x="10" y="306.0078"/><rect fill="#FFFFFF" filter="url(#f1h8rfnunm93oz)" height="445.5625" style="stroke:#000000;stroke-width:2.0;" width="459" x="378" y="462.8984"/><rect fill="#FFFFFF" height="116.8906" style="stroke:none;stroke-width:1.0;" width="459" x="378" y="481.25"/><rect fill="#FFFFFF" height="76.5391" style="stroke:none;stroke-width:1.0;" width="459" x="378" y="598.1406"/><rect fill="#FFFFFF" height="116.8906" style="stroke:none;stroke-width:1.0;" width="459" x="378" y="674.6797"/><rect fill="#FFFFFF" height="116.8906" style="stroke:none;stroke-width:1.0;" width="459" x="378" y="791.5703"/><line style="stroke:#A80036;stroke-width:1.0;stroke-dasharray:5.0,5.0;" x1="52" x2="52" y1="126.25" y2="973.1641"/><line style="stroke:#A80036;stroke-width:1.0;stroke-dasharray:5.0,5.0;" x1="201" x2="201" y1="126.25" y2="973.1641"/><line style="stroke:#A80036;stroke-width:1.0;stroke-dasharray:5.0,5.0;" x1="461" x2="461" y1="126.25" y2="973.1641"/><line style="stroke:#A80036;stroke-width:1.0;stroke-dasharray:5.0,5.0;" x1="685.5" x2="685.5" y1="126.25" y2="973.1641"/><text fill="#000000" font-family="sans-serif" font-size="14" lengthAdjust="spacing" textLength="58" x="20" y="123.1738">Assessor</text><ellipse cx="52" cy="51.6406" fill="#FEFECE" filter="url(#f1h8rfnunm93oz)" rx="8" ry="8" style="stroke:#A80036;stroke-width:2.0;"/><path d="M52,59.6406 L52,86.6406 M39,67.6406 L65,67.6406 M52,86.6406 L39,101.6406 M52,86.6406 L65,101.6406 " fill="none" filter="url(#f1h8rfnunm93oz)" style="stroke:#A80036;stroke-width:2.0;"/><text fill="#000000" font-family="sans-serif" font-size="14" lengthAdjust="spacing" textLength="58" x="20" y="986.6973">Assessor</text><ellipse cx="52" cy="999.7734" fill="#FEFECE" filter="url(#f1h8rfnunm93oz)" rx="8" ry="8" style="stroke:#A80036;stroke-width:2.0;"/><path d="M52,1007.7734 L52,1034.7734 M39,1015.7734 L65,1015.7734 M52,1034.7734 L39,1049.7734 M52,1034.7734 L65,1049.7734 " fill="none" filter="url(#f1h8rfnunm93oz)" style="stroke:#A80036;stroke-width:2.0;"/><rect fill="#FEFECE" filter="url(#f1h8rfnunm93oz)" height="31.6094" style="stroke:#A80036;stroke-width:1.5;" width="72" x="163" y="89.6406"/><text fill="#000000" font-family="sans-serif" font-size="14" lengthAdjust="spacing" textLength="58" x="170" y="111.1738">DPIA tool</text><rect fill="#FEFECE" filter="url(#f1h8rfnunm93oz)" height="31.6094" style="stroke:#A80036;stroke-width:1.5;" width="72" x="163" y="972.1641"/><text fill="#000000" font-family="sans-serif" font-size="14" lengthAdjust="spacing" textLength="58" x="170" y="993.6973">DPIA tool</text><rect fill="#FEFECE" filter="url(#f1h8rfnunm93oz)" height="31.6094" style="stroke:#A80036;stroke-width:1.5;" width="142" x="388" y="89.6406"/><text fill="#000000" font-family="sans-serif" font-size="14" lengthAdjust="spacing" textLength="128" x="395" y="111.1738">Data Source or DUS</text><rect fill="#FEFECE" filter="url(#f1h8rfnunm93oz)" height="31.6094" style="stroke:#A80036;stroke-width:1.5;" width="142" x="388" y="972.1641"/><text fill="#000000" font-family="sans-serif" font-size="14" lengthAdjust="spacing" textLength="128" x="395" y="993.6973">Data Source or DUS</text><rect fill="#FEFECE" filter="url(#f1h8rfnunm93oz)" height="31.6094" style="stroke:#A80036;stroke-width:1.5;" width="93" x="637.5" y="89.6406"/><text fill="#000000" font-family="sans-serif" font-size="14" lengthAdjust="spacing" textLength="79" x="644.5" y="111.1738">ADA Service</text><rect fill="#FEFECE" filter="url(#f1h8rfnunm93oz)" height="31.6094" style="stroke:#A80036;stroke-width:1.5;" width="93" x="637.5" y="972.1641"/><text fill="#000000" font-family="sans-serif" font-size="14" lengthAdjust="spacing" textLength="79" x="644.5" y="993.6973">ADA Service</text><line style="stroke:#A80036;stroke-width:1.0;" x1="461" x2="503" y1="158.6016" y2="158.6016"/><line style="stroke:#A80036;stroke-width:1.0;" x1="503" x2="503" y1="158.6016" y2="171.6016"/><line style="stroke:#A80036;stroke-width:1.0;" x1="462" x2="503" y1="171.6016" y2="171.6016"/><polygon fill="#A80036" points="472,167.6016,462,171.6016,472,175.6016,468,171.6016" style="stroke:#A80036;stroke-width:1.0;"/><text fill="#000000" font-family="sans-serif" font-size="13" lengthAdjust="spacing" textLength="145" x="468" y="153.7451">Initialise Data Agreement</text><path d="M10,186.6016 L75,186.6016 L75,194.6016 L65,204.6016 L10,204.6016 L10,186.6016 " fill="#EEEEEE" style="stroke:#000000;stroke-width:1.0;"/><rect fill="none" height="178.5938" style="stroke:#000000;stroke-width:2.0;" width="609" x="10" y="186.6016"/><text fill="#000000" font-family="sans-serif" font-size="13" font-weight="bold" lengthAdjust="spacing" textLength="20" x="25" y="201.0967">opt</text><text fill="#000000" font-family="sans-serif" font-size="11" font-weight="bold" lengthAdjust="spacing" textLength="125" x="90" y="200.0205">[External assessment]</text><polygon fill="#A80036" points="189,223.3047,199,227.3047,189,231.3047,193,227.3047" style="stroke:#A80036;stroke-width:1.0;"/><line style="stroke:#A80036;stroke-width:1.0;" x1="52" x2="195" y1="227.3047" y2="227.3047"/><text fill="#000000" font-family="sans-serif" font-size="13" lengthAdjust="spacing" textLength="125" x="59" y="222.4482">Record result of DPIA</text><path d="M94,240.3047 L94,266.3047 L303,266.3047 L303,250.3047 L293,240.3047 L94,240.3047 " fill="#FBFB77" filter="url(#f1h8rfnunm93oz)" style="stroke:#A80036;stroke-width:1.0;"/><path d="M293,240.3047 L293,250.3047 L303,250.3047 L293,240.3047 " fill="#FBFB77" style="stroke:#A80036;stroke-width:1.0;"/><text fill="#000000" font-family="sans-serif" font-size="13" lengthAdjust="spacing" textLength="188" x="100" y="258.7998">Register and finalise DPIA report</text><polygon fill="#A80036" points="449,294.0078,459,298.0078,449,302.0078,453,298.0078" style="stroke:#A80036;stroke-width:1.0;"/><line style="stroke:#A80036;stroke-width:1.0;" x1="201" x2="455" y1="298.0078" y2="298.0078"/><text fill="#000000" font-family="sans-serif" font-size="13" lengthAdjust="spacing" textLength="236" x="208" y="293.1514">Import DPIA and update Data Agreement</text><line style="stroke:#000000;stroke-width:1.0;stroke-dasharray:2.0,2.0;" x1="10" x2="619" y1="307.0078" y2="307.0078"/><text fill="#000000" font-family="sans-serif" font-size="11" font-weight="bold" lengthAdjust="spacing" textLength="123" x="15" y="318.4268">[Internal assessment]</text><line style="stroke:#A80036;stroke-width:1.0;" x1="461" x2="503" y1="344.1953" y2="344.1953"/><line style="stroke:#A80036;stroke-width:1.0;" x1="503" x2="503" y1="344.1953" y2="357.1953"/><line style="stroke:#A80036;stroke-width:1.0;" x1="462" x2="503" y1="357.1953" y2="357.1953"/><polygon fill="#A80036" points="472,353.1953,462,357.1953,472,361.1953,468,357.1953" style="stroke:#A80036;stroke-width:1.0;"/><text fill="#000000" font-family="sans-serif" font-size="13" lengthAdjust="spacing" textLength="139" x="468" y="339.3389">Update Data Agreement</text><path d="M338,377.1953 L338,403.1953 L580,403.1953 L580,387.1953 L570,377.1953 L338,377.1953 " fill="#FBFB77" filter="url(#f1h8rfnunm93oz)" style="stroke:#A80036;stroke-width:1.0;"/><path d="M570,377.1953 L570,387.1953 L580,387.1953 L570,377.1953 " fill="#FBFB77" style="stroke:#A80036;stroke-width:1.0;"/><text fill="#000000" font-family="sans-serif" font-size="13" lengthAdjust="spacing" textLength="221" x="344" y="395.6904">Complete Data Agreement preparation</text><line style="stroke:#A80036;stroke-width:1.0;" x1="461" x2="503" y1="434.8984" y2="434.8984"/><line style="stroke:#A80036;stroke-width:1.0;" x1="503" x2="503" y1="434.8984" y2="447.8984"/><line style="stroke:#A80036;stroke-width:1.0;" x1="462" x2="503" y1="447.8984" y2="447.8984"/><polygon fill="#A80036" points="472,443.8984,462,447.8984,472,451.8984,468,447.8984" style="stroke:#A80036;stroke-width:1.0;"/><text fill="#000000" font-family="sans-serif" font-size="13" lengthAdjust="spacing" textLength="211" x="468" y="430.042">Finalise Data Agreement preparation</text><path d="M378,462.8984 L443,462.8984 L443,470.8984 L433,480.8984 L378,480.8984 L378,462.8984 " fill="#EEEEEE" style="stroke:#000000;stroke-width:1.0;"/><rect fill="none" height="445.5625" style="stroke:#000000;stroke-width:2.0;" width="459" x="378" y="462.8984"/><text fill="#000000" font-family="sans-serif" font-size="13" font-weight="bold" lengthAdjust="spacing" textLength="20" x="393" y="477.3936">opt</text><text fill="#000000" font-family="sans-serif" font-size="11" font-weight="bold" lengthAdjust="spacing" textLength="183" x="458" y="476.3174">[CRUD Support - Data Agreement]</text><line style="stroke:#000000;stroke-width:1.0;stroke-dasharray:2.0,2.0;" x1="378" x2="837" y1="482.25" y2="482.25"/><text fill="#000000" font-family="sans-serif" font-size="11" font-weight="bold" lengthAdjust="spacing" textLength="45" x="383" y="493.6689">[Create]</text><polygon fill="#A80036" points="674,515.4375,684,519.4375,674,523.4375,678,519.4375" style="stroke:#A80036;stroke-width:1.0;"/><line style="stroke:#A80036;stroke-width:1.0;" x1="461" x2="680" y1="519.4375" y2="519.4375"/><text fill="#000000" font-family="sans-serif" font-size="13" lengthAdjust="spacing" textLength="130" x="468" y="514.5811">create-data-agreement</text><path d="M603,532.4375 L603,558.4375 L765,558.4375 L765,542.4375 L755,532.4375 L603,532.4375 " fill="#FBFB77" filter="url(#f1h8rfnunm93oz)" style="stroke:#A80036;stroke-width:1.0;"/><path d="M755,532.4375 L755,542.4375 L765,542.4375 L755,532.4375 " fill="#FBFB77" style="stroke:#A80036;stroke-width:1.0;"/><text fill="#000000" font-family="sans-serif" font-size="13" lengthAdjust="spacing" textLength="141" x="609" y="550.9326">Data Agreement created</text><polygon fill="#A80036" points="472,586.1406,462,590.1406,472,594.1406,468,590.1406" style="stroke:#A80036;stroke-width:1.0;"/><line style="stroke:#A80036;stroke-width:1.0;" x1="466" x2="685" y1="590.1406" y2="590.1406"/><text fill="#000000" font-family="sans-serif" font-size="13" lengthAdjust="spacing" textLength="187" x="478" y="585.2842">create-data-agreement-response</text><line style="stroke:#000000;stroke-width:1.0;stroke-dasharray:2.0,2.0;" x1="378" x2="837" y1="599.1406" y2="599.1406"/><text fill="#000000" font-family="sans-serif" font-size="11" font-weight="bold" lengthAdjust="spacing" textLength="35" x="383" y="610.5596">[Read]</text><polygon fill="#A80036" points="674,632.3281,684,636.3281,674,640.3281,678,636.3281" style="stroke:#A80036;stroke-width:1.0;"/><line style="stroke:#A80036;stroke-width:1.0;" x1="461" x2="680" y1="636.3281" y2="636.3281"/><text fill="#000000" font-family="sans-serif" font-size="13" lengthAdjust="spacing" textLength="119" x="468" y="631.4717">read-data-agreement</text><polygon fill="#A80036" points="472,662.6797,462,666.6797,472,670.6797,468,666.6797" style="stroke:#A80036;stroke-width:1.0;"/><line style="stroke:#A80036;stroke-width:1.0;" x1="466" x2="685" y1="666.6797" y2="666.6797"/><text fill="#000000" font-family="sans-serif" font-size="13" lengthAdjust="spacing" textLength="176" x="478" y="661.8232">read-data-agreement-response</text><line style="stroke:#000000;stroke-width:1.0;stroke-dasharray:2.0,2.0;" x1="378" x2="837" y1="675.6797" y2="675.6797"/><text fill="#000000" font-family="sans-serif" font-size="11" font-weight="bold" lengthAdjust="spacing" textLength="46" x="383" y="687.0986">[Update]</text><polygon fill="#A80036" points="674,708.8672,684,712.8672,674,716.8672,678,712.8672" style="stroke:#A80036;stroke-width:1.0;"/><line style="stroke:#A80036;stroke-width:1.0;" x1="461" x2="680" y1="712.8672" y2="712.8672"/><text fill="#000000" font-family="sans-serif" font-size="13" lengthAdjust="spacing" textLength="133" x="468" y="708.0107">update-data-agreement</text><path d="M544,725.8672 L544,751.8672 L823,751.8672 L823,735.8672 L813,725.8672 L544,725.8672 " fill="#FBFB77" filter="url(#f1h8rfnunm93oz)" style="stroke:#A80036;stroke-width:1.0;"/><path d="M813,725.8672 L813,735.8672 L823,735.8672 L813,725.8672 " fill="#FBFB77" style="stroke:#A80036;stroke-width:1.0;"/><text fill="#000000" font-family="sans-serif" font-size="13" lengthAdjust="spacing" textLength="258" x="550" y="744.3623">Updated with new version of Data Agreement</text><polygon fill="#A80036" points="472,779.5703,462,783.5703,472,787.5703,468,783.5703" style="stroke:#A80036;stroke-width:1.0;"/><line style="stroke:#A80036;stroke-width:1.0;" x1="466" x2="685" y1="783.5703" y2="783.5703"/><text fill="#000000" font-family="sans-serif" font-size="13" lengthAdjust="spacing" textLength="190" x="478" y="778.7139">update-data-agreement-response</text><line style="stroke:#000000;stroke-width:1.0;stroke-dasharray:2.0,2.0;" x1="378" x2="837" y1="792.5703" y2="792.5703"/><text fill="#000000" font-family="sans-serif" font-size="11" font-weight="bold" lengthAdjust="spacing" textLength="43" x="383" y="803.9893">[Delete]</text><polygon fill="#A80036" points="674,825.7578,684,829.7578,674,833.7578,678,829.7578" style="stroke:#A80036;stroke-width:1.0;"/><line style="stroke:#A80036;stroke-width:1.0;" x1="461" x2="680" y1="829.7578" y2="829.7578"/><text fill="#000000" font-family="sans-serif" font-size="13" lengthAdjust="spacing" textLength="129" x="468" y="824.9014">delete-data-agreement</text><polygon fill="#A80036" points="472,856.1094,462,860.1094,472,864.1094,468,860.1094" style="stroke:#A80036;stroke-width:1.0;"/><line style="stroke:#A80036;stroke-width:1.0;" x1="466" x2="685" y1="860.1094" y2="860.1094"/><text fill="#000000" font-family="sans-serif" font-size="13" lengthAdjust="spacing" textLength="186" x="478" y="855.2529">delete-data-agreement-response</text><path d="M564,873.1094 L564,899.1094 L803,899.1094 L803,883.1094 L793,873.1094 L564,873.1094 " fill="#FBFB77" filter="url(#f1h8rfnunm93oz)" style="stroke:#A80036;stroke-width:1.0;"/><path d="M793,873.1094 L793,883.1094 L803,883.1094 L793,873.1094 " fill="#FBFB77" style="stroke:#A80036;stroke-width:1.0;"/><text fill="#000000" font-family="sans-serif" font-size="13" lengthAdjust="spacing" textLength="218" x="570" y="891.6045">marks the data agreement as revoked</text><rect fill="#FFFFFF" filter="url(#f1h8rfnunm93oz)" height="42.7031" style="stroke:#000000;stroke-width:2.0;" width="348.5" x="385" y="915.4609"/><polygon fill="#EEEEEE" points="385,915.4609,447,915.4609,447,923.4609,437,933.4609,385,933.4609,385,915.4609" style="stroke:#000000;stroke-width:2.0;"/><text fill="#000000" font-family="sans-serif" font-size="13" font-weight="bold" lengthAdjust="spacing" textLength="17" x="398" y="930.9561">ref</text><text fill="#000000" font-family="sans-serif" font-size="13" lengthAdjust="spacing" textLength="211" x="455.75" y="950.9561">Ready for Negotation/Capture Phase</text><!--MD5=[a9dd222175664f03daf28a3d44e63e2e]
@startuml

title Data Agreement Definition and Preparation

actor Assessor
participant "DPIA tool"
participant "Data Source or DUS"
participant "ADA Service"

"Data Source or DUS" -> "Data Source or DUS": Initialise Data Agreement

opt External assessment
    Assessor -> "DPIA tool": Record result of DPIA
    note over "DPIA tool": Register and finalise DPIA report
    "DPIA tool" -> "Data Source or DUS": Import DPIA and update Data Agreement
else Internal assessment
    "Data Source or DUS" -> "Data Source or DUS": Update Data Agreement
end

note over "Data Source or DUS": Complete Data Agreement preparation
"Data Source or DUS" -> "Data Source or DUS": Finalise Data Agreement preparation


opt CRUD Support - Data Agreement
else Create
    "Data Source or DUS" -> "ADA Service": create-data-agreement
    note over "ADA Service": Data Agreement created
    "Data Source or DUS" <- "ADA Service": create-data-agreement-response
else Read
    "Data Source or DUS" -> "ADA Service": read-data-agreement
    "Data Source or DUS" <- "ADA Service": read-data-agreement-response
else Update
    "Data Source or DUS" -> "ADA Service": update-data-agreement
    note over "ADA Service": Updated with new version of Data Agreement
    "Data Source or DUS" <- "ADA Service": update-data-agreement-response
else Delete
    "Data Source or DUS" -> "ADA Service": delete-data-agreement
    "Data Source or DUS" <- "ADA Service": delete-data-agreement-response
    note over "ADA Service": marks the data agreement as revoked
end

ref over "Data Source or DUS", "ADA Service": Ready for Negotation/Capture Phase

@enduml

PlantUML version 1.2021.00(Sun Jan 10 11:25:05 CET 2021)
(GPL source distribution)
Java Runtime: OpenJDK Runtime Environment
JVM: OpenJDK 64-Bit Server VM
Default Encoding: Cp1252
Language: en
Country: US
--></g></svg>