<?xml version="1.0" encoding="UTF-8" standalone="no"?><svg xmlns="http://www.w3.org/2000/svg" xmlns:xlink="http://www.w3.org/1999/xlink" contentScriptType="application/ecmascript" contentStyleType="text/css" height="612px" preserveAspectRatio="none" style="width:627px;height:612px;" version="1.1" viewBox="0 0 627 612" width="627px" zoomAndPan="magnify"><defs><filter height="300%" id="f1ha08i6tqketk" width="300%" x="-1" y="-1"><feGaussianBlur result="blurOut" stdDeviation="2.0"/><feColorMatrix in="blurOut" result="blurOut2" type="matrix" values="0 0 0 0 0 0 0 0 0 0 0 0 0 0 0 0 0 0 .4 0"/><feOffset dx="4.0" dy="4.0" in="blurOut2" result="blurOut3"/><feBlend in="SourceGraphic" in2="blurOut3" mode="normal"/></filter></defs><g><text fill="#000000" font-family="sans-serif" font-size="18" lengthAdjust="spacing" textLength="352" x="145" y="30.6855">SSI Data Agreement and verifying credential</text><rect fill="#FFFFFF" filter="url(#f1ha08i6tqketk)" height="48.7031" style="stroke:#000000;stroke-width:2.0;" width="415.5" x="83" y="168.6016"/><line style="stroke:#A80036;stroke-width:1.0;stroke-dasharray:5.0,5.0;" x1="125" x2="125" y1="126.25" y2="527.1172"/><line style="stroke:#A80036;stroke-width:1.0;stroke-dasharray:5.0,5.0;" x1="465.5" x2="465.5" y1="126.25" y2="527.1172"/><line style="stroke:#A80036;stroke-width:1.0;stroke-dasharray:5.0,5.0;" x1="546.5" x2="546.5" y1="126.25" y2="527.1172"/><text fill="#000000" font-family="sans-serif" font-size="14" lengthAdjust="spacing" textLength="59" x="93" y="123.1738">Individual</text><ellipse cx="125.5" cy="51.6406" fill="#FEFECE" filter="url(#f1ha08i6tqketk)" rx="8" ry="8" style="stroke:#A80036;stroke-width:2.0;"/><path d="M125.5,59.6406 L125.5,86.6406 M112.5,67.6406 L138.5,67.6406 M125.5,86.6406 L112.5,101.6406 M125.5,86.6406 L138.5,101.6406 " fill="none" filter="url(#f1ha08i6tqketk)" style="stroke:#A80036;stroke-width:2.0;"/><text fill="#000000" font-family="sans-serif" font-size="14" lengthAdjust="spacing" textLength="59" x="93" y="540.6504">Individual</text><ellipse cx="125.5" cy="553.7266" fill="#FEFECE" filter="url(#f1ha08i6tqketk)" rx="8" ry="8" style="stroke:#A80036;stroke-width:2.0;"/><path d="M125.5,561.7266 L125.5,588.7266 M112.5,569.7266 L138.5,569.7266 M125.5,588.7266 L112.5,603.7266 M125.5,588.7266 L138.5,603.7266 " fill="none" filter="url(#f1ha08i6tqketk)" style="stroke:#A80036;stroke-width:2.0;"/><rect fill="#FEFECE" filter="url(#f1ha08i6tqketk)" height="31.6094" style="stroke:#A80036;stroke-width:1.5;" width="42" x="442.5" y="89.6406"/><text fill="#000000" font-family="sans-serif" font-size="14" lengthAdjust="spacing" textLength="28" x="449.5" y="111.1738">DUS</text><rect fill="#FEFECE" filter="url(#f1ha08i6tqketk)" height="31.6094" style="stroke:#A80036;stroke-width:1.5;" width="42" x="442.5" y="526.1172"/><text fill="#000000" font-family="sans-serif" font-size="14" lengthAdjust="spacing" textLength="28" x="449.5" y="547.6504">DUS</text><rect fill="#FEFECE" filter="url(#f1ha08i6tqketk)" height="31.6094" style="stroke:#A80036;stroke-width:1.5;" width="93" x="498.5" y="89.6406"/><text fill="#000000" font-family="sans-serif" font-size="14" lengthAdjust="spacing" textLength="79" x="505.5" y="111.1738">ADA Service</text><rect fill="#FEFECE" filter="url(#f1ha08i6tqketk)" height="31.6094" style="stroke:#A80036;stroke-width:1.5;" width="93" x="498.5" y="526.1172"/><text fill="#000000" font-family="sans-serif" font-size="14" lengthAdjust="spacing" textLength="79" x="505.5" y="547.6504">ADA Service</text><path d="M83,168.6016 L148,168.6016 L148,176.6016 L138,186.6016 L83,186.6016 L83,168.6016 " fill="#EEEEEE" style="stroke:#000000;stroke-width:1.0;"/><rect fill="none" height="48.7031" style="stroke:#000000;stroke-width:2.0;" width="415.5" x="83" y="168.6016"/><text fill="#000000" font-family="sans-serif" font-size="13" font-weight="bold" lengthAdjust="spacing" textLength="20" x="98" y="183.0967">opt</text><text fill="#000000" font-family="sans-serif" font-size="11" font-weight="bold" lengthAdjust="spacing" textLength="224" x="163" y="182.0205">[First time connection and no signed DA]</text><polygon fill="#A80036" points="136.5,205.3047,126.5,209.3047,136.5,213.3047,132.5,209.3047" style="stroke:#A80036;stroke-width:1.0;"/><polygon fill="#A80036" points="453.5,205.3047,463.5,209.3047,453.5,213.3047,457.5,209.3047" style="stroke:#A80036;stroke-width:1.0;"/><line style="stroke:#A80036;stroke-width:1.0;" x1="130.5" x2="459.5" y1="209.3047" y2="209.3047"/><text fill="#000000" font-family="sans-serif" font-size="13" lengthAdjust="spacing" textLength="176" x="142.5" y="204.4482">First time connect with Verifier</text><path d="M392,229.3047 L392,255.3047 L535,255.3047 L535,239.3047 L525,229.3047 L392,229.3047 " fill="#FBFB77" filter="url(#f1ha08i6tqketk)" style="stroke:#A80036;stroke-width:1.0;"/><path d="M525,229.3047 L525,239.3047 L535,239.3047 L525,229.3047 " fill="#FBFB77" style="stroke:#A80036;stroke-width:1.0;"/><text fill="#000000" font-family="sans-serif" font-size="13" lengthAdjust="spacing" textLength="122" x="398" y="247.7998">sign Data Agreement</text><polygon fill="#A80036" points="136.5,283.0078,126.5,287.0078,136.5,291.0078,132.5,287.0078" style="stroke:#A80036;stroke-width:1.0;"/><line style="stroke:#A80036;stroke-width:1.0;" x1="130.5" x2="464.5" y1="287.0078" y2="287.0078"/><text fill="#000000" font-family="sans-serif" font-size="13" lengthAdjust="spacing" textLength="316" x="142.5" y="282.1514">request-presentation (offer-data-agreement+signed DA)</text><path d="M50,300.0078 L50,326.0078 L196,326.0078 L196,310.0078 L186,300.0078 L50,300.0078 " fill="#FBFB77" filter="url(#f1ha08i6tqketk)" style="stroke:#A80036;stroke-width:1.0;"/><path d="M186,300.0078 L186,310.0078 L196,310.0078 L186,300.0078 " fill="#FBFB77" style="stroke:#A80036;stroke-width:1.0;"/><text fill="#000000" font-family="sans-serif" font-size="13" lengthAdjust="spacing" textLength="125" x="56" y="318.5029">review and accept DA</text><path d="M43,340.3594 L43,366.3594 L204,366.3594 L204,350.3594 L194,340.3594 L43,340.3594 " fill="#FBFB77" filter="url(#f1ha08i6tqketk)" style="stroke:#A80036;stroke-width:1.0;"/><path d="M194,340.3594 L194,350.3594 L204,350.3594 L194,340.3594 " fill="#FBFB77" style="stroke:#A80036;stroke-width:1.0;"/><text fill="#000000" font-family="sans-serif" font-size="13" lengthAdjust="spacing" textLength="140" x="49" y="358.8545">co-sign Data Agreement</text><path d="M19,380.7109 L19,406.7109 L227,406.7109 L227,390.7109 L217,380.7109 L19,380.7109 " fill="#FBFB77" filter="url(#f1ha08i6tqketk)" style="stroke:#A80036;stroke-width:1.0;"/><path d="M217,380.7109 L217,390.7109 L227,390.7109 L217,380.7109 " fill="#FBFB77" style="stroke:#A80036;stroke-width:1.0;"/><text fill="#000000" font-family="sans-serif" font-size="13" lengthAdjust="spacing" textLength="187" x="25" y="399.2061">review proof request and fill proof</text><polygon fill="#A80036" points="453.5,434.4141,463.5,438.4141,453.5,442.4141,457.5,438.4141" style="stroke:#A80036;stroke-width:1.0;"/><line style="stroke:#A80036;stroke-width:1.0;" x1="125.5" x2="459.5" y1="438.4141" y2="438.4141"/><text fill="#000000" font-family="sans-serif" font-size="13" lengthAdjust="spacing" textLength="302" x="132.5" y="433.5576">presentation (accept-data-agreement+co-signed DA)</text><polygon fill="#A80036" points="535,464.7656,545,468.7656,535,472.7656,539,468.7656" style="stroke:#A80036;stroke-width:1.0;"/><line style="stroke:#A80036;stroke-width:1.0;" x1="125.5" x2="541" y1="468.7656" y2="468.7656"/><text fill="#000000" font-family="sans-serif" font-size="13" lengthAdjust="spacing" textLength="172" x="132.5" y="463.9092">store co-signed DA as receipt</text><path d="M309,481.7656 L309,507.7656 L618,507.7656 L618,491.7656 L608,481.7656 L309,481.7656 " fill="#FBFB77" filter="url(#f1ha08i6tqketk)" style="stroke:#A80036;stroke-width:1.0;"/><path d="M608,481.7656 L608,491.7656 L618,491.7656 L608,481.7656 " fill="#FBFB77" style="stroke:#A80036;stroke-width:1.0;"/><text fill="#000000" font-family="sans-serif" font-size="13" lengthAdjust="spacing" textLength="288" x="315" y="500.2607">successfully verify presentation and revocation list</text><!--MD5=[3f81d22f5aeef3ee9dd7d5f45eebc0a9]
@startuml

title SSI Data Agreement and verifying credential

actor Individual
participant "DUS"
participant "ADA Service"

opt Proof presentation and co-sign DA
opt First time connection and no signed DA
    Individual <-> "DUS": First time connect with Verifier
end

note over "DUS": sign Data Agreement
Individual <- "DUS": request-presentation (offer-data-agreement+signed DA)

note over Individual: review and accept DA
note over Individual: co-sign Data Agreement
note over Individual: review proof request and fill proof
Individual -> "DUS": presentation (accept-data-agreement+co-signed DA)
Individual -> "ADA Service": store co-signed DA as receipt
note over "DUS": successfully verify presentation and revocation list

@enduml

PlantUML version 1.2021.00(Sun Jan 10 11:25:05 CET 2021)
(GPL source distribution)
Java Runtime: OpenJDK Runtime Environment
JVM: OpenJDK 64-Bit Server VM
Default Encoding: Cp1252
Language: en
Country: US
--></g></svg>