<?xml version="1.0" encoding="UTF-8" standalone="no"?><svg xmlns="http://www.w3.org/2000/svg" xmlns:xlink="http://www.w3.org/1999/xlink" contentScriptType="application/ecmascript" contentStyleType="text/css" height="643px" preserveAspectRatio="none" style="width:626px;height:643px;" version="1.1" viewBox="0 0 626 643" width="626px" zoomAndPan="magnify"><defs><filter height="300%" id="f846n752ngf4h" width="300%" x="-1" y="-1"><feGaussianBlur result="blurOut" stdDeviation="2.0"/><feColorMatrix in="blurOut" result="blurOut2" type="matrix" values="0 0 0 0 0 0 0 0 0 0 0 0 0 0 0 0 0 0 .4 0"/><feOffset dx="4.0" dy="4.0" in="blurOut2" result="blurOut3"/><feBlend in="SourceGraphic" in2="blurOut3" mode="normal"/></filter></defs><g><text fill="#000000" font-family="sans-serif" font-size="18" lengthAdjust="spacing" textLength="350" x="143" y="30.6855">SSI Data Agreement and issuing credentials</text><rect fill="#FFFFFF" filter="url(#f846n752ngf4h)" height="48.7031" style="stroke:#000000;stroke-width:2.0;" width="459" x="60" y="168.6016"/><line style="stroke:#A80036;stroke-width:1.0;stroke-dasharray:5.0,5.0;" x1="102" x2="102" y1="126.25" y2="557.4688"/><line style="stroke:#A80036;stroke-width:1.0;stroke-dasharray:5.0,5.0;" x1="460" x2="460" y1="126.25" y2="557.4688"/><line style="stroke:#A80036;stroke-width:1.0;stroke-dasharray:5.0,5.0;" x1="567" x2="567" y1="126.25" y2="557.4688"/><text fill="#000000" font-family="sans-serif" font-size="14" lengthAdjust="spacing" textLength="59" x="70" y="123.1738">Individual</text><ellipse cx="102.5" cy="51.6406" fill="#FEFECE" filter="url(#f846n752ngf4h)" rx="8" ry="8" style="stroke:#A80036;stroke-width:2.0;"/><path d="M102.5,59.6406 L102.5,86.6406 M89.5,67.6406 L115.5,67.6406 M102.5,86.6406 L89.5,101.6406 M102.5,86.6406 L115.5,101.6406 " fill="none" filter="url(#f846n752ngf4h)" style="stroke:#A80036;stroke-width:2.0;"/><text fill="#000000" font-family="sans-serif" font-size="14" lengthAdjust="spacing" textLength="59" x="70" y="571.002">Individual</text><ellipse cx="102.5" cy="584.0781" fill="#FEFECE" filter="url(#f846n752ngf4h)" rx="8" ry="8" style="stroke:#A80036;stroke-width:2.0;"/><path d="M102.5,592.0781 L102.5,619.0781 M89.5,600.0781 L115.5,600.0781 M102.5,619.0781 L89.5,634.0781 M102.5,619.0781 L115.5,634.0781 " fill="none" filter="url(#f846n752ngf4h)" style="stroke:#A80036;stroke-width:2.0;"/><rect fill="#FEFECE" filter="url(#f846n752ngf4h)" height="31.6094" style="stroke:#A80036;stroke-width:1.5;" width="93" x="412" y="89.6406"/><text fill="#000000" font-family="sans-serif" font-size="14" lengthAdjust="spacing" textLength="79" x="419" y="111.1738">Data Source</text><rect fill="#FEFECE" filter="url(#f846n752ngf4h)" height="31.6094" style="stroke:#A80036;stroke-width:1.5;" width="93" x="412" y="556.4688"/><text fill="#000000" font-family="sans-serif" font-size="14" lengthAdjust="spacing" textLength="79" x="419" y="578.002">Data Source</text><rect fill="#FEFECE" filter="url(#f846n752ngf4h)" height="31.6094" style="stroke:#A80036;stroke-width:1.5;" width="93" x="519" y="89.6406"/><text fill="#000000" font-family="sans-serif" font-size="14" lengthAdjust="spacing" textLength="79" x="526" y="111.1738">ADA Service</text><rect fill="#FEFECE" filter="url(#f846n752ngf4h)" height="31.6094" style="stroke:#A80036;stroke-width:1.5;" width="93" x="519" y="556.4688"/><text fill="#000000" font-family="sans-serif" font-size="14" lengthAdjust="spacing" textLength="79" x="526" y="578.002">ADA Service</text><path d="M60,168.6016 L125,168.6016 L125,176.6016 L115,186.6016 L60,186.6016 L60,168.6016 " fill="#EEEEEE" style="stroke:#000000;stroke-width:1.0;"/><rect fill="none" height="48.7031" style="stroke:#000000;stroke-width:2.0;" width="459" x="60" y="168.6016"/><text fill="#000000" font-family="sans-serif" font-size="13" font-weight="bold" lengthAdjust="spacing" textLength="20" x="75" y="183.0967">opt</text><text fill="#000000" font-family="sans-serif" font-size="11" font-weight="bold" lengthAdjust="spacing" textLength="224" x="140" y="182.0205">[First time connection and no signed DA]</text><polygon fill="#A80036" points="113.5,205.3047,103.5,209.3047,113.5,213.3047,109.5,209.3047" style="stroke:#A80036;stroke-width:1.0;"/><polygon fill="#A80036" points="448.5,205.3047,458.5,209.3047,448.5,213.3047,452.5,209.3047" style="stroke:#A80036;stroke-width:1.0;"/><line style="stroke:#A80036;stroke-width:1.0;" x1="107.5" x2="454.5" y1="209.3047" y2="209.3047"/><text fill="#000000" font-family="sans-serif" font-size="13" lengthAdjust="spacing" textLength="171" x="119.5" y="204.4482">First time connect with Issuer</text><path d="M387,229.3047 L387,255.3047 L530,255.3047 L530,239.3047 L520,229.3047 L387,229.3047 " fill="#FBFB77" filter="url(#f846n752ngf4h)" style="stroke:#A80036;stroke-width:1.0;"/><path d="M520,229.3047 L520,239.3047 L530,239.3047 L520,229.3047 " fill="#FBFB77" style="stroke:#A80036;stroke-width:1.0;"/><text fill="#000000" font-family="sans-serif" font-size="13" lengthAdjust="spacing" textLength="122" x="393" y="247.7998">sign Data Agreement</text><polygon fill="#A80036" points="113.5,283.0078,103.5,287.0078,113.5,291.0078,109.5,287.0078" style="stroke:#A80036;stroke-width:1.0;"/><line style="stroke:#A80036;stroke-width:1.0;" x1="107.5" x2="459.5" y1="287.0078" y2="287.0078"/><text fill="#000000" font-family="sans-serif" font-size="13" lengthAdjust="spacing" textLength="282" x="119.5" y="282.1514">offer-credential (offer-data-agreement+signed DA)</text><path d="M27,300.0078 L27,326.0078 L173,326.0078 L173,310.0078 L163,300.0078 L27,300.0078 " fill="#FBFB77" filter="url(#f846n752ngf4h)" style="stroke:#A80036;stroke-width:1.0;"/><path d="M163,300.0078 L163,310.0078 L173,310.0078 L163,300.0078 " fill="#FBFB77" style="stroke:#A80036;stroke-width:1.0;"/><text fill="#000000" font-family="sans-serif" font-size="13" lengthAdjust="spacing" textLength="125" x="33" y="318.5029">review and accept DA</text><path d="M20,340.3594 L20,366.3594 L181,366.3594 L181,350.3594 L171,340.3594 L20,340.3594 " fill="#FBFB77" filter="url(#f846n752ngf4h)" style="stroke:#A80036;stroke-width:1.0;"/><path d="M171,340.3594 L171,350.3594 L181,350.3594 L171,340.3594 " fill="#FBFB77" style="stroke:#A80036;stroke-width:1.0;"/><text fill="#000000" font-family="sans-serif" font-size="13" lengthAdjust="spacing" textLength="140" x="26" y="358.8545">co-sign Data Agreement</text><path d="M28,380.7109 L28,406.7109 L172,406.7109 L172,390.7109 L162,380.7109 L28,380.7109 " fill="#FBFB77" filter="url(#f846n752ngf4h)" style="stroke:#A80036;stroke-width:1.0;"/><path d="M162,380.7109 L162,390.7109 L172,390.7109 L162,380.7109 " fill="#FBFB77" style="stroke:#A80036;stroke-width:1.0;"/><text fill="#000000" font-family="sans-serif" font-size="13" lengthAdjust="spacing" textLength="123" x="34" y="399.2061">review offer credential</text><path d="M26,421.0625 L26,447.0625 L174,447.0625 L174,431.0625 L164,421.0625 L26,421.0625 " fill="#FBFB77" filter="url(#f846n752ngf4h)" style="stroke:#A80036;stroke-width:1.0;"/><path d="M164,421.0625 L164,431.0625 L174,431.0625 L164,421.0625 " fill="#FBFB77" style="stroke:#A80036;stroke-width:1.0;"/><text fill="#000000" font-family="sans-serif" font-size="13" lengthAdjust="spacing" textLength="127" x="32" y="439.5576">accept credential offer</text><polygon fill="#A80036" points="448.5,474.7656,458.5,478.7656,448.5,482.7656,452.5,478.7656" style="stroke:#A80036;stroke-width:1.0;"/><line style="stroke:#A80036;stroke-width:1.0;" x1="102.5" x2="454.5" y1="478.7656" y2="478.7656"/><text fill="#000000" font-family="sans-serif" font-size="13" lengthAdjust="spacing" textLength="334" x="109.5" y="473.9092">request-credential (accept-data-agreement+co-signed DA)</text><polygon fill="#A80036" points="555.5,505.1172,565.5,509.1172,555.5,513.1172,559.5,509.1172" style="stroke:#A80036;stroke-width:1.0;"/><line style="stroke:#A80036;stroke-width:1.0;" x1="102.5" x2="561.5" y1="509.1172" y2="509.1172"/><text fill="#000000" font-family="sans-serif" font-size="13" lengthAdjust="spacing" textLength="172" x="109.5" y="504.2607">store co-signed DA as receipt</text><polygon fill="#A80036" points="113.5,535.4688,103.5,539.4688,113.5,543.4688,109.5,539.4688" style="stroke:#A80036;stroke-width:1.0;"/><line style="stroke:#A80036;stroke-width:1.0;" x1="107.5" x2="459.5" y1="539.4688" y2="539.4688"/><text fill="#000000" font-family="sans-serif" font-size="13" lengthAdjust="spacing" textLength="95" x="119.5" y="534.6123">issuer-credential</text><!--MD5=[fafe5eed6bf27811f756f29e544f1b92]
@startuml

title SSI Data Agreement and issuing credentials

actor Individual
participant "Data Source"
participant "ADA Service"


opt Create credential and co-sign DA
opt First time connection and no signed DA
    Individual <-> "Data Source": First time connect with Issuer
end

note over "Data Source": sign Data Agreement
Individual <- "Data Source": offer-credential (offer-data-agreement+signed DA)

note over Individual: review and accept DA
note over Individual: co-sign Data Agreement
note over Individual: review offer credential
note over Individual: accept credential offer
Individual -> "Data Source": request-credential (accept-data-agreement+co-signed DA)
Individual -> "ADA Service": store co-signed DA as receipt
Individual <- "Data Source": issuer-credential

@enduml

PlantUML version 1.2021.00(Sun Jan 10 11:25:05 CET 2021)
(GPL source distribution)
Java Runtime: OpenJDK Runtime Environment
JVM: OpenJDK 64-Bit Server VM
Default Encoding: Cp1252
Language: en
Country: US
--></g></svg>