<?xml version="1.0" encoding="UTF-8" standalone="no"?><svg xmlns="http://www.w3.org/2000/svg" xmlns:xlink="http://www.w3.org/1999/xlink" contentScriptType="application/ecmascript" contentStyleType="text/css" height="788px" preserveAspectRatio="none" style="width:411px;height:788px;" version="1.1" viewBox="0 0 411 788" width="411px" zoomAndPan="magnify"><defs><filter height="300%" id="f1niclyj7ktn5n" width="300%" x="-1" y="-1"><feGaussianBlur result="blurOut" stdDeviation="2.0"/><feColorMatrix in="blurOut" result="blurOut2" type="matrix" values="0 0 0 0 0 0 0 0 0 0 0 0 0 0 0 0 0 0 .4 0"/><feOffset dx="4.0" dy="4.0" in="blurOut2" result="blurOut3"/><feBlend in="SourceGraphic" in2="blurOut3" mode="normal"/></filter></defs><g><text fill="#000000" font-family="sans-serif" font-size="18" lengthAdjust="spacing" textLength="174" x="116" y="30.6855">Data Agreement Audit</text><line style="stroke:#A80036;stroke-width:1.0;stroke-dasharray:5.0,5.0;" x1="112" x2="112" y1="126.25" y2="702.5781"/><line style="stroke:#A80036;stroke-width:1.0;stroke-dasharray:5.0,5.0;" x1="221" x2="221" y1="126.25" y2="702.5781"/><line style="stroke:#A80036;stroke-width:1.0;stroke-dasharray:5.0,5.0;" x1="352" x2="352" y1="126.25" y2="702.5781"/><text fill="#000000" font-family="sans-serif" font-size="14" lengthAdjust="spacing" textLength="45" x="87" y="123.1738">Auditor</text><ellipse cx="112.5" cy="51.6406" fill="#FEFECE" filter="url(#f1niclyj7ktn5n)" rx="8" ry="8" style="stroke:#A80036;stroke-width:2.0;"/><path d="M112.5,59.6406 L112.5,86.6406 M99.5,67.6406 L125.5,67.6406 M112.5,86.6406 L99.5,101.6406 M112.5,86.6406 L125.5,101.6406 " fill="none" filter="url(#f1niclyj7ktn5n)" style="stroke:#A80036;stroke-width:2.0;"/><text fill="#000000" font-family="sans-serif" font-size="14" lengthAdjust="spacing" textLength="45" x="87" y="716.1113">Auditor</text><ellipse cx="112.5" cy="729.1875" fill="#FEFECE" filter="url(#f1niclyj7ktn5n)" rx="8" ry="8" style="stroke:#A80036;stroke-width:2.0;"/><path d="M112.5,737.1875 L112.5,764.1875 M99.5,745.1875 L125.5,745.1875 M112.5,764.1875 L99.5,779.1875 M112.5,764.1875 L125.5,779.1875 " fill="none" filter="url(#f1niclyj7ktn5n)" style="stroke:#A80036;stroke-width:2.0;"/><rect fill="#FEFECE" filter="url(#f1niclyj7ktn5n)" height="31.6094" style="stroke:#A80036;stroke-width:1.5;" width="142" x="148" y="89.6406"/><text fill="#000000" font-family="sans-serif" font-size="14" lengthAdjust="spacing" textLength="128" x="155" y="111.1738">Data Source or DUS</text><rect fill="#FEFECE" filter="url(#f1niclyj7ktn5n)" height="31.6094" style="stroke:#A80036;stroke-width:1.5;" width="142" x="148" y="701.5781"/><text fill="#000000" font-family="sans-serif" font-size="14" lengthAdjust="spacing" textLength="128" x="155" y="723.1113">Data Source or DUS</text><rect fill="#FEFECE" filter="url(#f1niclyj7ktn5n)" height="31.6094" style="stroke:#A80036;stroke-width:1.5;" width="93" x="304" y="89.6406"/><text fill="#000000" font-family="sans-serif" font-size="14" lengthAdjust="spacing" textLength="79" x="311" y="111.1738">ADA Service</text><rect fill="#FEFECE" filter="url(#f1niclyj7ktn5n)" height="31.6094" style="stroke:#A80036;stroke-width:1.5;" width="93" x="304" y="701.5781"/><text fill="#000000" font-family="sans-serif" font-size="14" lengthAdjust="spacing" textLength="79" x="311" y="723.1113">ADA Service</text><rect fill="#FFFFFF" filter="url(#f1niclyj7ktn5n)" height="59.0547" style="stroke:#000000;stroke-width:2.0;" width="209" x="84" y="136.25"/><polygon fill="#EEEEEE" points="84,136.25,146,136.25,146,144.25,136,154.25,84,154.25,84,136.25" style="stroke:#000000;stroke-width:2.0;"/><text fill="#000000" font-family="sans-serif" font-size="13" font-weight="bold" lengthAdjust="spacing" textLength="17" x="97" y="151.7451">ref</text><text fill="#000000" font-family="sans-serif" font-size="13" lengthAdjust="spacing" textLength="130" x="111.5" y="171.7451">create data agreement</text><text fill="#000000" font-family="sans-serif" font-size="13" lengthAdjust="spacing" textLength="158" x="111.5" y="188.0967">through regular VC process</text><polygon fill="#A80036" points="340.5,218.6563,350.5,222.6563,340.5,226.6563,344.5,222.6563" style="stroke:#A80036;stroke-width:1.0;"/><line style="stroke:#A80036;stroke-width:1.0;" x1="112.5" x2="346.5" y1="222.6563" y2="222.6563"/><text fill="#000000" font-family="sans-serif" font-size="13" lengthAdjust="spacing" textLength="119" x="119.5" y="217.7998">read-data-agreement</text><polygon fill="#A80036" points="123.5,249.0078,113.5,253.0078,123.5,257.0078,119.5,253.0078" style="stroke:#A80036;stroke-width:1.0;"/><line style="stroke:#A80036;stroke-width:1.0;" x1="117.5" x2="351.5" y1="253.0078" y2="253.0078"/><text fill="#000000" font-family="sans-serif" font-size="13" lengthAdjust="spacing" textLength="176" x="129.5" y="248.1514">read-data-agreement-response</text><path d="M12,266.0078 L12,292.0078 L209,292.0078 L209,276.0078 L199,266.0078 L12,266.0078 " fill="#FBFB77" filter="url(#f1niclyj7ktn5n)" style="stroke:#A80036;stroke-width:1.0;"/><path d="M199,266.0078 L199,276.0078 L209,276.0078 L199,266.0078 " fill="#FBFB77" style="stroke:#A80036;stroke-width:1.0;"/><text fill="#000000" font-family="sans-serif" font-size="13" lengthAdjust="spacing" textLength="176" x="18" y="284.5029">Verify data agreement in place</text><polygon fill="#A80036" points="340.5,319.7109,350.5,323.7109,340.5,327.7109,344.5,323.7109" style="stroke:#A80036;stroke-width:1.0;"/><line style="stroke:#A80036;stroke-width:1.0;" x1="112.5" x2="346.5" y1="323.7109" y2="323.7109"/><text fill="#000000" font-family="sans-serif" font-size="13" lengthAdjust="spacing" textLength="46" x="119.5" y="318.8545">read-did</text><polygon fill="#A80036" points="123.5,350.0625,113.5,354.0625,123.5,358.0625,119.5,354.0625" style="stroke:#A80036;stroke-width:1.0;"/><line style="stroke:#A80036;stroke-width:1.0;" x1="117.5" x2="351.5" y1="354.0625" y2="354.0625"/><text fill="#000000" font-family="sans-serif" font-size="13" lengthAdjust="spacing" textLength="103" x="129.5" y="349.2061">read-did-response</text><path d="M22,367.0625 L22,393.0625 L199,393.0625 L199,377.0625 L189,367.0625 L22,367.0625 " fill="#FBFB77" filter="url(#f1niclyj7ktn5n)" style="stroke:#A80036;stroke-width:1.0;"/><path d="M189,367.0625 L189,377.0625 L199,377.0625 L189,367.0625 " fill="#FBFB77" style="stroke:#A80036;stroke-width:1.0;"/><text fill="#000000" font-family="sans-serif" font-size="13" lengthAdjust="spacing" textLength="156" x="28" y="385.5576">Verify DID digitial signature</text><rect fill="#FFFFFF" filter="url(#f1niclyj7ktn5n)" height="42.7031" style="stroke:#000000;stroke-width:2.0;" width="209" x="84" y="402.4141"/><polygon fill="#EEEEEE" points="84,402.4141,146,402.4141,146,410.4141,136,420.4141,84,420.4141,84,402.4141" style="stroke:#000000;stroke-width:2.0;"/><text fill="#000000" font-family="sans-serif" font-size="13" font-weight="bold" lengthAdjust="spacing" textLength="17" x="97" y="417.9092">ref</text><text fill="#000000" font-family="sans-serif" font-size="13" lengthAdjust="spacing" textLength="144" x="118.5" y="437.9092">withdraw data agreement</text><polygon fill="#A80036" points="340.5,468.4688,350.5,472.4688,340.5,476.4688,344.5,472.4688" style="stroke:#A80036;stroke-width:1.0;"/><line style="stroke:#A80036;stroke-width:1.0;" x1="112.5" x2="346.5" y1="472.4688" y2="472.4688"/><text fill="#000000" font-family="sans-serif" font-size="13" lengthAdjust="spacing" textLength="119" x="119.5" y="467.6123">read-data-agreement</text><polygon fill="#A80036" points="123.5,498.8203,113.5,502.8203,123.5,506.8203,119.5,502.8203" style="stroke:#A80036;stroke-width:1.0;"/><line style="stroke:#A80036;stroke-width:1.0;" x1="117.5" x2="351.5" y1="502.8203" y2="502.8203"/><text fill="#000000" font-family="sans-serif" font-size="13" lengthAdjust="spacing" textLength="176" x="129.5" y="497.9639">read-data-agreement-response</text><path d="M5,515.8203 L5,541.8203 L217,541.8203 L217,525.8203 L207,515.8203 L5,515.8203 " fill="#FBFB77" filter="url(#f1niclyj7ktn5n)" style="stroke:#A80036;stroke-width:1.0;"/><path d="M207,515.8203 L207,525.8203 L217,525.8203 L207,515.8203 " fill="#FBFB77" style="stroke:#A80036;stroke-width:1.0;"/><text fill="#000000" font-family="sans-serif" font-size="13" lengthAdjust="spacing" textLength="191" x="11" y="534.3154">Verify data agreement withdrawal</text><polygon fill="#A80036" points="340.5,569.5234,350.5,573.5234,340.5,577.5234,344.5,573.5234" style="stroke:#A80036;stroke-width:1.0;"/><line style="stroke:#A80036;stroke-width:1.0;" x1="112.5" x2="346.5" y1="573.5234" y2="573.5234"/><text fill="#000000" font-family="sans-serif" font-size="13" lengthAdjust="spacing" textLength="46" x="119.5" y="568.667">read-did</text><path d="M305,586.5234 L305,612.5234 L396,612.5234 L396,596.5234 L386,586.5234 L305,586.5234 " fill="#FBFB77" filter="url(#f1niclyj7ktn5n)" style="stroke:#A80036;stroke-width:1.0;"/><path d="M386,586.5234 L386,596.5234 L396,596.5234 L386,586.5234 " fill="#FBFB77" style="stroke:#A80036;stroke-width:1.0;"/><text fill="#000000" font-family="sans-serif" font-size="13" lengthAdjust="spacing" textLength="70" x="311" y="605.0186">Resolve DID</text><polygon fill="#A80036" points="123.5,640.2266,113.5,644.2266,123.5,648.2266,119.5,644.2266" style="stroke:#A80036;stroke-width:1.0;"/><line style="stroke:#A80036;stroke-width:1.0;" x1="117.5" x2="351.5" y1="644.2266" y2="644.2266"/><text fill="#000000" font-family="sans-serif" font-size="13" lengthAdjust="spacing" textLength="103" x="129.5" y="639.3701">read-did-response</text><path d="M22,657.2266 L22,683.2266 L199,683.2266 L199,667.2266 L189,657.2266 L22,657.2266 " fill="#FBFB77" filter="url(#f1niclyj7ktn5n)" style="stroke:#A80036;stroke-width:1.0;"/><path d="M189,657.2266 L189,667.2266 L199,667.2266 L189,657.2266 " fill="#FBFB77" style="stroke:#A80036;stroke-width:1.0;"/><text fill="#000000" font-family="sans-serif" font-size="13" lengthAdjust="spacing" textLength="156" x="28" y="675.7217">Verify DID digitial signature</text><!--MD5=[f1662c6f37c10851e8e5821e430e24c7]
@startuml

title Data Agreement Audit

actor Auditor
participant "Data Source or DUS"
participant "ADA Service"

ref over Auditor, "Data Source or DUS": create data agreement \nthrough regular VC process

"Auditor" -> "ADA Service": read-data-agreement
"Auditor" <- "ADA Service": read-data-agreement-response

note over Auditor: Verify data agreement in place

"Auditor" -> "ADA Service": read-did
"Auditor" <- "ADA Service": read-did-response

note over Auditor: Verify DID digitial signature

ref over Auditor, "Data Source or DUS": withdraw data agreement

"Auditor" -> "ADA Service": read-data-agreement
"Auditor" <- "ADA Service": read-data-agreement-response

note over Auditor: Verify data agreement withdrawal

"Auditor" -> "ADA Service": read-did
note over "ADA Service": Resolve DID
"Auditor" <- "ADA Service": read-did-response

note over Auditor: Verify DID digitial signature

@enduml

PlantUML version 1.2021.00(Sun Jan 10 11:25:05 CET 2021)
(GPL source distribution)
Java Runtime: OpenJDK Runtime Environment
JVM: OpenJDK 64-Bit Server VM
Default Encoding: Cp1252
Language: en
Country: US
--></g></svg>