<?xml version="1.0" encoding="UTF-8" standalone="no"?><svg xmlns="http://www.w3.org/2000/svg" xmlns:xlink="http://www.w3.org/1999/xlink" contentScriptType="application/ecmascript" contentStyleType="text/css" height="504px" preserveAspectRatio="none" style="width:759px;height:504px;" version="1.1" viewBox="0 0 759 504" width="759px" zoomAndPan="magnify"><defs><filter height="300%" id="f1enx9pxuc6heo" width="300%" x="-1" y="-1"><feGaussianBlur result="blurOut" stdDeviation="2.0"/><feColorMatrix in="blurOut" result="blurOut2" type="matrix" values="0 0 0 0 0 0 0 0 0 0 0 0 0 0 0 0 0 0 .4 0"/><feOffset dx="4.0" dy="4.0" in="blurOut2" result="blurOut3"/><feBlend in="SourceGraphic" in2="blurOut3" mode="normal"/></filter></defs><g><text fill="#000000" font-family="sans-serif" font-size="18" lengthAdjust="spacing" textLength="223" x="265.5" y="30.6855">Data Agreement Withdrawal</text><line style="stroke:#A80036;stroke-width:1.0;stroke-dasharray:5.0,5.0;" x1="62" x2="62" y1="126.25" y2="419.0625"/><line style="stroke:#A80036;stroke-width:1.0;stroke-dasharray:5.0,5.0;" x1="183" x2="183" y1="126.25" y2="419.0625"/><line style="stroke:#A80036;stroke-width:1.0;stroke-dasharray:5.0,5.0;" x1="426.5" x2="426.5" y1="126.25" y2="419.0625"/><line style="stroke:#A80036;stroke-width:1.0;stroke-dasharray:5.0,5.0;" x1="700" x2="700" y1="126.25" y2="419.0625"/><text fill="#000000" font-family="sans-serif" font-size="14" lengthAdjust="spacing" textLength="59" x="30" y="123.1738">Individual</text><ellipse cx="62.5" cy="51.6406" fill="#FEFECE" filter="url(#f1enx9pxuc6heo)" rx="8" ry="8" style="stroke:#A80036;stroke-width:2.0;"/><path d="M62.5,59.6406 L62.5,86.6406 M49.5,67.6406 L75.5,67.6406 M62.5,86.6406 L49.5,101.6406 M62.5,86.6406 L75.5,101.6406 " fill="none" filter="url(#f1enx9pxuc6heo)" style="stroke:#A80036;stroke-width:2.0;"/><text fill="#000000" font-family="sans-serif" font-size="14" lengthAdjust="spacing" textLength="59" x="30" y="432.5957">Individual</text><ellipse cx="62.5" cy="445.6719" fill="#FEFECE" filter="url(#f1enx9pxuc6heo)" rx="8" ry="8" style="stroke:#A80036;stroke-width:2.0;"/><path d="M62.5,453.6719 L62.5,480.6719 M49.5,461.6719 L75.5,461.6719 M62.5,480.6719 L49.5,495.6719 M62.5,480.6719 L75.5,495.6719 " fill="none" filter="url(#f1enx9pxuc6heo)" style="stroke:#A80036;stroke-width:2.0;"/><rect fill="#FEFECE" filter="url(#f1enx9pxuc6heo)" height="31.6094" style="stroke:#A80036;stroke-width:1.5;" width="95" x="134" y="89.6406"/><text fill="#000000" font-family="sans-serif" font-size="14" lengthAdjust="spacing" textLength="81" x="141" y="111.1738">Data Subject</text><rect fill="#FEFECE" filter="url(#f1enx9pxuc6heo)" height="31.6094" style="stroke:#A80036;stroke-width:1.5;" width="95" x="134" y="418.0625"/><text fill="#000000" font-family="sans-serif" font-size="14" lengthAdjust="spacing" textLength="81" x="141" y="439.5957">Data Subject</text><rect fill="#FEFECE" filter="url(#f1enx9pxuc6heo)" height="31.6094" style="stroke:#A80036;stroke-width:1.5;" width="142" x="353.5" y="89.6406"/><text fill="#000000" font-family="sans-serif" font-size="14" lengthAdjust="spacing" textLength="128" x="360.5" y="111.1738">Data Source or DUS</text><rect fill="#FEFECE" filter="url(#f1enx9pxuc6heo)" height="31.6094" style="stroke:#A80036;stroke-width:1.5;" width="142" x="353.5" y="418.0625"/><text fill="#000000" font-family="sans-serif" font-size="14" lengthAdjust="spacing" textLength="128" x="360.5" y="439.5957">Data Source or DUS</text><rect fill="#FEFECE" filter="url(#f1enx9pxuc6heo)" height="31.6094" style="stroke:#A80036;stroke-width:1.5;" width="93" x="652" y="89.6406"/><text fill="#000000" font-family="sans-serif" font-size="14" lengthAdjust="spacing" textLength="79" x="659" y="111.1738">ADA Service</text><rect fill="#FEFECE" filter="url(#f1enx9pxuc6heo)" height="31.6094" style="stroke:#A80036;stroke-width:1.5;" width="93" x="652" y="418.0625"/><text fill="#000000" font-family="sans-serif" font-size="14" lengthAdjust="spacing" textLength="79" x="659" y="439.5957">ADA Service</text><polygon fill="#A80036" points="171.5,154.6016,181.5,158.6016,171.5,162.6016,175.5,158.6016" style="stroke:#A80036;stroke-width:1.0;"/><line style="stroke:#A80036;stroke-width:1.0;" x1="62.5" x2="177.5" y1="158.6016" y2="158.6016"/><text fill="#000000" font-family="sans-serif" font-size="13" lengthAdjust="spacing" textLength="97" x="69.5" y="153.7451">Open Holder app</text><path d="M5,171.6016 L5,197.6016 L237,197.6016 L237,181.6016 L227,171.6016 L5,171.6016 " fill="#FBFB77" filter="url(#f1enx9pxuc6heo)" style="stroke:#A80036;stroke-width:1.0;"/><path d="M227,171.6016 L227,181.6016 L237,181.6016 L227,171.6016 " fill="#FBFB77" style="stroke:#A80036;stroke-width:1.0;"/><text fill="#000000" font-family="sans-serif" font-size="13" lengthAdjust="spacing" textLength="211" x="11" y="190.0967">Choose to withdraw Data Agreement</text><polygon fill="#A80036" points="414.5,225.3047,424.5,229.3047,414.5,233.3047,418.5,229.3047" style="stroke:#A80036;stroke-width:1.0;"/><line style="stroke:#A80036;stroke-width:1.0;" x1="183.5" x2="420.5" y1="229.3047" y2="229.3047"/><text fill="#000000" font-family="sans-serif" font-size="13" lengthAdjust="spacing" textLength="219" x="190.5" y="224.4482">request withdrawal of Data Agreement</text><path d="M331,242.3047 L331,268.3047 L518,268.3047 L518,252.3047 L508,242.3047 L331,242.3047 " fill="#FBFB77" filter="url(#f1enx9pxuc6heo)" style="stroke:#A80036;stroke-width:1.0;"/><path d="M508,242.3047 L508,252.3047 L518,252.3047 L508,242.3047 " fill="#FBFB77" style="stroke:#A80036;stroke-width:1.0;"/><text fill="#000000" font-family="sans-serif" font-size="13" lengthAdjust="spacing" textLength="166" x="337" y="260.7998">sign Data Agreement (reject)</text><polygon fill="#A80036" points="194.5,296.0078,184.5,300.0078,194.5,304.0078,190.5,300.0078" style="stroke:#A80036;stroke-width:1.0;"/><line style="stroke:#A80036;stroke-width:1.0;" x1="188.5" x2="425.5" y1="300.0078" y2="300.0078"/><text fill="#000000" font-family="sans-serif" font-size="13" lengthAdjust="spacing" textLength="186" x="200.5" y="295.1514">offer-data-agreement+signed DA</text><path d="M101,313.0078 L101,339.0078 L262,339.0078 L262,323.0078 L252,313.0078 L101,313.0078 " fill="#FBFB77" filter="url(#f1enx9pxuc6heo)" style="stroke:#A80036;stroke-width:1.0;"/><path d="M252,313.0078 L252,323.0078 L262,323.0078 L252,313.0078 " fill="#FBFB77" style="stroke:#A80036;stroke-width:1.0;"/><text fill="#000000" font-family="sans-serif" font-size="13" lengthAdjust="spacing" textLength="140" x="107" y="331.5029">co-sign Data Agreement</text><polygon fill="#A80036" points="414.5,366.7109,424.5,370.7109,414.5,374.7109,418.5,370.7109" style="stroke:#A80036;stroke-width:1.0;"/><line style="stroke:#A80036;stroke-width:1.0;" x1="183.5" x2="420.5" y1="370.7109" y2="370.7109"/><text fill="#000000" font-family="sans-serif" font-size="13" lengthAdjust="spacing" textLength="219" x="190.5" y="365.8545">accept-data-agreement+co-signed DA</text><polygon fill="#A80036" points="688.5,397.0625,698.5,401.0625,688.5,405.0625,692.5,401.0625" style="stroke:#A80036;stroke-width:1.0;"/><line style="stroke:#A80036;stroke-width:1.0;" x1="426.5" x2="694.5" y1="401.0625" y2="401.0625"/><text fill="#000000" font-family="sans-serif" font-size="13" lengthAdjust="spacing" textLength="250" x="433.5" y="396.2061">store co-signed DA as receipt of withdrawal</text><!--MD5=[70be41a33cec3ca1765ce9adf808e5f1]
@startuml

title Data Agreement Withdrawal

actor Individual
participant "Data Subject"
participant "Data Source or DUS"

Individual -> "Data Subject": Open Holder app
note over "Individual", "Data Subject": Choose to withdraw Data Agreement
"Data Subject" -> "Data Source or DUS": request withdrawal of Data Agreement
note over "Data Source or DUS": sign Data Agreement (reject)
"Data Subject" <- "Data Source or DUS": offer-data-agreement+signed DA
note over "Data Subject": co-sign Data Agreement
"Data Subject" -> "Data Source or DUS": accept-data-agreement+co-signed DA
"Data Source or DUS" -> "ADA Service": store co-signed DA as receipt of withdrawal

@enduml

PlantUML version 1.2021.00(Sun Jan 10 11:25:05 CET 2021)
(GPL source distribution)
Java Runtime: OpenJDK Runtime Environment
JVM: OpenJDK 64-Bit Server VM
Default Encoding: Cp1252
Language: en
Country: US
--></g></svg>